SplineFontDB: 3.0
FontName: OmeBhatkhandePunjabi
FullName: Ome Bhatkhande Punjabi
FamilyName: Ome Bhatkhande Punjabi
Weight: Regular
Copyright: Omenad 2006-2020, Baljeet Singh
Version: 1.01 Oct 5, 2022
ItalicAngle: 0
UnderlinePosition: -292
UnderlineWidth: 150
Ascent: 1638
Descent: 410
InvalidEm: 0
sfntRevision: 0x00010000
LayerCount: 2
Layer: 0 1 "Back" 1
Layer: 1 1 "Fore" 0
PreferredKerning: 4
XUID: [1021 365 -898263510 12670257]
StyleMap: 0x0000
FSType: 8
OS2Version: 1
OS2_WeightWidthSlopeOnly: 0
OS2_UseTypoMetrics: 0
CreationTime: 1192029071
ModificationTime: 1664977093
PfmFamily: 17
TTFWeight: 400
TTFWidth: 5
LineGap: 0
VLineGap: 0
Panose: 2 0 0 0 0 0 0 0 0 0
OS2TypoAscent: 3650
OS2TypoAOffset: 0
OS2TypoDescent: -3000
OS2TypoDOffset: 0
OS2TypoLinegap: 205
OS2WinAscent: 3650
OS2WinAOffset: 0
OS2WinDescent: 3000
OS2WinDOffset: 0
HheadAscent: 3650
HheadAOffset: 0
HheadDescent: -3000
HheadDOffset: 0
OS2SubXSize: 1434
OS2SubYSize: 1331
OS2SubXOff: 0
OS2SubYOff: 283
OS2SupXSize: 1000
OS2SupYSize: 2250
OS2SupXOff: 0
OS2SupYOff: 2800
OS2StrikeYSize: 102
OS2StrikeYPos: 530
OS2Vendor: 'OMND'
OS2CodePages: 6000019f.dff70000
OS2UnicodeRanges: a00002af.500078fb.00000000.00000000
Lookup: 258 0 0 "'kern' Horizontal Kerning in Latin lookup 0" { "'kern' Horizontal Kerning in Latin lookup 0 subtable"  } ['kern' ('latn' <'dflt' > ) ]
MarkAttachClasses: 1
DEI: 91125
ShortTable: maxp 16
  1
  0
  653
  192
  5
  0
  0
  0
  0
  0
  0
  0
  0
  0
  0
  0
EndShort
LangName: 1055 "" "" "Normal"
LangName: 1053 "" "" "Normal"
LangName: 2058 "" "" "Normal"
LangName: 1034 "" "" "Normal"
LangName: 3082 "" "" "Normal"
LangName: 1060 "" "" "Navadno"
LangName: 1051 "" "" "Norm+AOEA-lne"
LangName: 1049 "" "" "+BB4EMQRLBEcEPQRLBDkA"
LangName: 1046 "" "" "Normal"
LangName: 2070 "" "" "Normal"
LangName: 1045 "" "" "Normalny"
LangName: 1044 "" "" "Normal"
LangName: 1040 "" "" "Normale"
LangName: 1038 "" "" "Norm+AOEA-l"
LangName: 1032 "" "" "+A5oDsQO9A78DvQO5A7oDrAAA"

StartChar: .notdef
Encoding: 65536 -1 0
GlifName: _notdef
Width: 1582
Flags: W
LayerCount: 2
Fore
SplineSet
279 0 m 1,0,-1
 279 1280 l 1,1,-1
 1303 1280 l 1,2,-1
 1303 0 l 1,3,-1
 279 0 l 1,0,-1
311 32 m 1,4,-1
 1271 32 l 1,5,-1
 1271 1248 l 1,6,-1
 311 1248 l 1,7,-1
 311 32 l 1,4,-1
EndSplineSet
Validated: 1
EndChar

StartChar: exclam
Encoding: 33 33 4
GlifName: exclam
Width: 0
Flags: W
LayerCount: 2
Fore
SplineSet
8925 -2000 m 1,0,-1
 9097 -2000 l 1,1,2
 8741 -2191 8741 -2191 8265 -2319 c 0,3,4
 7586 -2502 7586 -2502 6664 -2601 c 128,-1,5
 5742 -2700 5742 -2700 4752 -2700 c 0,6,7
 3304 -2700 3304 -2700 2108.5 -2505.5 c 128,-1,8
 913 -2311 913 -2311 396 -2000 c 1,9,-1
 594 -2000 l 1,10,11
 913 -2155 913 -2155 1465 -2255.5 c 128,-1,12
 2017 -2356 2017 -2356 2864 -2405.5 c 128,-1,13
 3711 -2455 3711 -2455 4631 -2455 c 0,14,15
 5632 -2455 5632 -2455 6450 -2413 c 0,16,17
 7095 -2380 7095 -2380 7485.5 -2333 c 128,-1,18
 7876 -2286 7876 -2286 8235.5 -2207 c 128,-1,19
 8595 -2128 8595 -2128 8925 -2000 c 1,0,-1
EndSplineSet
Validated: 1
EndChar

StartChar: numbersign
Encoding: 35 35 6
GlifName: numbersign
Width: 7
Flags: W
LayerCount: 2
Fore
SplineSet
4273 -1200 m 1,0,-1
 4351 -1200 l 1,1,2
 4189 -1350 4189 -1350 3973 -1451 c 0,3,4
 3664 -1594 3664 -1594 3245 -1672 c 128,-1,5
 2826 -1750 2826 -1750 2376 -1750 c 0,6,7
 1718 -1750 1718 -1750 1174.5 -1597.5 c 128,-1,8
 631 -1445 631 -1445 396 -1200 c 1,9,-1
 486 -1200 l 1,10,11
 631 -1322 631 -1322 882 -1400.5 c 128,-1,12
 1133 -1479 1133 -1479 1518 -1518 c 128,-1,13
 1903 -1557 1903 -1557 2321 -1557 c 0,14,15
 2776 -1557 2776 -1557 3148 -1524 c 0,16,17
 3441 -1498 3441 -1498 3618.5 -1461.5 c 128,-1,18
 3796 -1425 3796 -1425 3959.5 -1362.5 c 128,-1,19
 4123 -1300 4123 -1300 4273 -1200 c 1,0,-1
EndSplineSet
Validated: 1
EndChar

StartChar: dollar
Encoding: 36 36 7
GlifName: dollar
Width: 7
Flags: W
LayerCount: 2
Fore
SplineSet
5823 -1200 m 1,0,-1
 5933 -1200 l 1,1,2
 5707 -1370 5707 -1370 5403 -1485 c 0,3,4
 4972 -1648 4972 -1648 4385 -1736.5 c 128,-1,5
 3798 -1825 3798 -1825 3168 -1825 c 0,6,7
 2246 -1825 2246 -1825 1485.5 -1651.5 c 128,-1,8
 725 -1478 725 -1478 396 -1200 c 1,9,-1
 522 -1200 l 1,10,11
 725 -1339 725 -1339 1076 -1428.5 c 128,-1,12
 1427 -1518 1427 -1518 1966 -1562 c 128,-1,13
 2505 -1606 2505 -1606 3091 -1606 c 0,14,15
 3728 -1606 3728 -1606 4248 -1569 c 0,16,17
 4659 -1539 4659 -1539 4907.5 -1497 c 128,-1,18
 5156 -1455 5156 -1455 5384.5 -1384.5 c 128,-1,19
 5613 -1314 5613 -1314 5823 -1200 c 1,0,-1
EndSplineSet
Validated: 1
EndChar

StartChar: percent
Encoding: 37 37 8
GlifName: percent
Width: 7
Flags: W
LayerCount: 2
Fore
SplineSet
7374 -1200 m 1,0,-1
 7515 -1200 l 1,1,2
 7224 -1370 7224 -1370 6834 -1485 c 0,3,4
 6279 -1648 6279 -1648 5524.5 -1736.5 c 128,-1,5
 4770 -1825 4770 -1825 3960 -1825 c 0,6,7
 2775 -1825 2775 -1825 1797 -1651.5 c 128,-1,8
 819 -1478 819 -1478 396 -1200 c 1,9,-1
 558 -1200 l 1,10,11
 819 -1339 819 -1339 1270.5 -1428.5 c 128,-1,12
 1722 -1518 1722 -1518 2415 -1562 c 128,-1,13
 3108 -1606 3108 -1606 3861 -1606 c 0,14,15
 4680 -1606 4680 -1606 5349 -1569 c 0,16,17
 5877 -1539 5877 -1539 6196.5 -1497 c 128,-1,18
 6516 -1455 6516 -1455 6810 -1384.5 c 128,-1,19
 7104 -1314 7104 -1314 7374 -1200 c 1,0,-1
EndSplineSet
Validated: 1
EndChar

StartChar: ampersand
Encoding: 38 38 9
GlifName: ampersand
Width: 7
Flags: W
LayerCount: 2
Fore
SplineSet
10475 -1200 m 1,0,-1
 10679 -1200 l 1,1,2
 10259 -1391 10259 -1391 9695 -1519 c 0,3,4
 8894 -1702 8894 -1702 7804 -1801 c 128,-1,5
 6714 -1900 6714 -1900 5544 -1900 c 0,6,7
 3832 -1900 3832 -1900 2419.5 -1705.5 c 128,-1,8
 1007 -1511 1007 -1511 396 -1200 c 1,9,-1
 630 -1200 l 1,10,11
 1007 -1355 1007 -1355 1659 -1455.5 c 128,-1,12
 2311 -1556 2311 -1556 3312 -1605.5 c 128,-1,13
 4313 -1655 4313 -1655 5401 -1655 c 0,14,15
 6584 -1655 6584 -1655 7550 -1613 c 0,16,17
 8313 -1580 8313 -1580 8774.5 -1533 c 128,-1,18
 9236 -1486 9236 -1486 9660.5 -1407 c 128,-1,19
 10085 -1328 10085 -1328 10475 -1200 c 1,0,-1
EndSplineSet
Validated: 1
EndChar

StartChar: quotesingle
Encoding: 39 39 10
GlifName: quotesingle
Width: 1582
Flags: W
LayerCount: 2
Fore
SplineSet
1104 1138 m 1,0,-1
 1104 418 l 2,1,2
 1104 291 1104 291 1044 203 c 0,3,4
 973 97 973 97 841 97 c 0,5,6
 820 97 820 97 798 100 c 0,7,8
 617 122 617 122 439 331 c 0,9,10
 264 536 264 536 264 712 c 0,11,12
 264 910 264 910 518 910 c 2,13,-1
 940 910 l 1,14,-1
 940 1138 l 1,15,-1
 210 1138 l 1,16,-1
 210 1298 l 1,17,-1
 1336 1298 l 1,18,-1
 1336 1138 l 1,19,-1
 1104 1138 l 1,0,-1
940 750 m 1,20,-1
 560 750 l 2,21,22
 489 750 489 750 464 734 c 128,-1,23
 439 718 439 718 444 676 c 0,24,25
 456 575 456 575 586 420 c 0,26,27
 725 255 725 255 829 255 c 0,28,29
 878 255 878 255 910 297 c 0,30,31
 940 335 940 335 940 386 c 2,32,-1
 940 750 l 1,20,-1
EndSplineSet
Validated: 1
EndChar

StartChar: parenleft
Encoding: 40 40 11
GlifName: parenleft
Width: 791
Flags: W
LayerCount: 2
Fore
SplineSet
604 -439 m 1,0,1
 540 -380 540 -380 495 -334 c 128,-1,2
 450 -288 450 -288 415 -245 c 128,-1,3
 380 -202 380 -202 352.5 -159 c 128,-1,4
 325 -116 325 -116 298 -65 c 0,5,6
 149 216 149 216 149 546 c 0,7,8
 149 777 149 777 229 984 c 0,9,10
 257 1060 257 1060 290 1121.5 c 128,-1,11
 323 1183 323 1183 366 1240 c 128,-1,12
 409 1297 409 1297 466.5 1356.5 c 128,-1,13
 524 1416 524 1416 604 1488 c 1,14,-1
 642 1435 l 1,15,16
 587 1369 587 1369 547 1316 c 128,-1,17
 507 1263 507 1263 477.5 1212.5 c 128,-1,18
 448 1162 448 1162 426.5 1110 c 128,-1,19
 405 1058 405 1058 384 994 c 0,20,21
 356 894 356 894 340.5 784.5 c 128,-1,22
 325 675 325 675 325 546 c 0,23,24
 325 286 325 286 388 69 c 0,25,26
 409 -1 409 -1 430.5 -56.5 c 128,-1,27
 452 -112 452 -112 480.5 -165 c 128,-1,28
 509 -218 509 -218 548 -273.5 c 128,-1,29
 587 -329 587 -329 642 -396 c 1,30,-1
 604 -439 l 1,0,1
EndSplineSet
Validated: 1
EndChar

StartChar: parenright
Encoding: 41 41 12
GlifName: parenright
Width: 791
Flags: W
LayerCount: 2
Fore
SplineSet
149 -396 m 1,0,1
 204 -329 204 -329 243 -273.5 c 128,-1,2
 282 -218 282 -218 310.5 -165 c 128,-1,3
 339 -112 339 -112 360.5 -56.5 c 128,-1,4
 382 -1 382 -1 402 69 c 0,5,6
 466 286 466 286 466 546 c 0,7,8
 466 675 466 675 450.5 784.5 c 128,-1,9
 435 894 435 894 405 994 c 0,10,11
 386 1058 386 1058 364.5 1109 c 128,-1,12
 343 1160 343 1160 313.5 1211.5 c 128,-1,13
 284 1263 284 1263 244 1316 c 128,-1,14
 204 1369 204 1369 149 1435 c 1,15,-1
 187 1488 l 1,16,17
 267 1416 267 1416 324.5 1355.5 c 128,-1,18
 382 1295 382 1295 425 1238 c 128,-1,19
 468 1181 468 1181 501 1119.5 c 128,-1,20
 534 1058 534 1058 562 984 c 0,21,22
 642 777 642 777 642 544 c 0,23,24
 642 357 642 357 594 184 c 128,-1,25
 546 11 546 11 452 -138 c 0,26,27
 427 -175 427 -175 403.5 -209 c 128,-1,28
 380 -243 380 -243 349.5 -276.5 c 128,-1,29
 319 -310 319 -310 280 -350 c 128,-1,30
 241 -390 241 -390 187 -439 c 1,31,-1
 149 -396 l 1,0,1
EndSplineSet
Validated: 1
EndChar

StartChar: asterisk
Encoding: 42 42 13
GlifName: asterisk
Width: 7
Flags: W
LayerCount: 2
Fore
SplineSet
12026 -1200 m 1,0,-1
 12261 -1200 l 1,1,2
 11776 -1391 11776 -1391 11126 -1519 c 0,3,4
 10201 -1702 10201 -1702 8943.5 -1801 c 128,-1,5
 7686 -1900 7686 -1900 6336 -1900 c 0,6,7
 4361 -1900 4361 -1900 2731 -1705.5 c 128,-1,8
 1101 -1511 1101 -1511 396 -1200 c 1,9,-1
 666 -1200 l 1,10,11
 1101 -1355 1101 -1355 1853.5 -1455.5 c 128,-1,12
 2606 -1556 2606 -1556 3761 -1605.5 c 128,-1,13
 4916 -1655 4916 -1655 6171 -1655 c 0,14,15
 7536 -1655 7536 -1655 8651 -1613 c 0,16,17
 9531 -1580 9531 -1580 10063.5 -1533 c 128,-1,18
 10596 -1486 10596 -1486 11086 -1407 c 128,-1,19
 11576 -1328 11576 -1328 12026 -1200 c 1,0,-1
EndSplineSet
Validated: 1
EndChar

StartChar: plus
Encoding: 43 43 14
GlifName: plus
Width: 1582
Flags: W
LayerCount: 2
Fore
SplineSet
734 1052 m 1,0,-1
 849 1052 l 1,1,-1
 849 595 l 1,2,-1
 1308 595 l 1,3,-1
 1308 480 l 1,4,-1
 849 480 l 1,5,-1
 849 17 l 1,6,-1
 734 17 l 1,7,-1
 734 480 l 1,8,-1
 275 480 l 1,9,-1
 275 595 l 1,10,-1
 734 595 l 1,11,-1
 734 1052 l 1,0,-1
EndSplineSet
Validated: 1
EndChar

StartChar: comma
Encoding: 44 44 15
GlifName: comma
Width: 512
Flags: W
LayerCount: 2
Fore
SplineSet
446 223 m 1,0,1
 424 164 424 164 398.5 108.5 c 128,-1,2
 373 53 373 53 337 -6.5 c 128,-1,3
 301 -66 301 -66 254 -132.5 c 128,-1,4
 207 -199 207 -199 145 -279 c 1,5,-1
 61 -317 l 1,6,-1
 33 -295 l 1,7,8
 121 -147 121 -147 164 -36.5 c 128,-1,9
 207 74 207 74 217 190 c 1,10,11
 258 203 258 203 286.5 211 c 128,-1,12
 315 219 315 219 337.5 226 c 128,-1,13
 360 233 360 233 378.5 239.5 c 128,-1,14
 397 246 397 246 418 252 c 1,15,-1
 446 223 l 1,0,1
EndSplineSet
Validated: 1
EndChar

StartChar: hyphen
Encoding: 45 45 16
AltUni2: 0000ad.ffffffff.0
GlifName: hyphen
Width: 1582
Flags: W
LayerCount: 2
Fore
SplineSet
499 440 m 1,0,-1
 489 451 l 1,1,-1
 544 588 l 1,2,-1
 1083 588 l 1,3,-1
 1093 578 l 1,4,-1
 1032 440 l 1,5,-1
 499 440 l 1,0,-1
EndSplineSet
Validated: 1
EndChar

StartChar: zero
Encoding: 48 48 19
GlifName: zero
Width: 1582
Flags: W
LayerCount: 2
Fore
SplineSet
404 671 m 260,0,1
 404 511 404 511 517.5 397.5 c 132,-1,2
 631 284 631 284 791 284 c 260,3,4
 951 284 951 284 1064.5 397.5 c 132,-1,5
 1178 511 1178 511 1178 671 c 260,6,7
 1178 831 1178 831 1064.5 944.5 c 132,-1,8
 951 1058 951 1058 791 1058 c 260,9,10
 631 1058 631 1058 517.5 944.5 c 132,-1,11
 404 831 404 831 404 671 c 260,0,1
244 671 m 260,12,13
 244 897 244 897 404.5 1057.5 c 132,-1,14
 565 1218 565 1218 791 1218 c 260,15,16
 1017 1218 1017 1218 1177.5 1057.5 c 132,-1,17
 1338 897 1338 897 1338 671 c 260,18,19
 1338 445 1338 445 1177.5 284.5 c 132,-1,20
 1017 124 1017 124 791 124 c 260,21,22
 565 124 565 124 404.5 284.5 c 132,-1,23
 244 445 244 445 244 671 c 260,12,13
EndSplineSet
Validated: 1
EndChar

StartChar: one
Encoding: 49 49 20
GlifName: one
Width: 1582
Flags: W
LayerCount: 2
Fore
SplineSet
724 1356 m 0,0,1
 1125 1356 1125 1356 1125 982 c 0,2,3
 1125 965 1125 965 1124 948 c 0,4,5
 1121 892 1121 892 1109 731 c 0,6,7
 1102 642 1102 642 1102 484 c 0,8,9
 1102 185 1102 185 1216 46 c 1,10,11
 1219 34 1219 34 1219 24 c 0,12,13
 1219 -16 1219 -16 1180 -16 c 0,14,15
 1113 -16 1113 -16 1046 85 c 0,16,17
 960 214 960 214 938 426 c 0,18,19
 932 484 932 484 932 569 c 128,-1,20
 932 654 932 654 938 768 c 1,21,22
 909 754 909 754 865 737 c 0,23,24
 778 704 778 704 700 700 c 0,25,26
 682 699 682 699 664 699 c 0,27,28
 662 699 662 699 660 699 c 0,29,30
 525 699 525 699 422 769 c 0,31,32
 292 857 292 857 292 1016 c 0,33,34
 292 1163 292 1163 387 1254 c 0,35,36
 493 1356 493 1356 674 1356 c 0,37,38
 684 1356 684 1356 697 1356 c 128,-1,40
 710 1356 710 1356 724 1356 c 0,0,1
704 1194 m 0,41,42
 585 1194 585 1194 520 1147 c 0,43,44
 456 1101 456 1101 456 1028 c 0,45,46
 456 1026 456 1026 456 1024 c 0,47,48
 456 947 456 947 530 898 c 0,49,50
 594 854 594 854 678 854 c 0,51,52
 756 854 756 854 840 889 c 0,53,54
 950 935 950 935 950 1018 c 0,55,56
 950 1021 950 1021 950 1024 c 0,57,58
 950 1145 950 1145 830 1182 c 0,59,60
 791 1194 791 1194 704 1194 c 0,41,42
EndSplineSet
Validated: 1
EndChar

StartChar: two
Encoding: 50 50 21
GlifName: two
Width: 1582
Flags: W
LayerCount: 2
Fore
SplineSet
802 1342 m 0,0,1
 819.741007194 1342.58273381 819.741007194 1342.58273381 836.903472905 1342.58273381 c 0,2,3
 1084.8057554 1342.58273381 1084.8057554 1342.58273381 1212 1221 c 0,4,5
 1336 1103 1336 1103 1336 882 c 0,6,7
 1336 665 1336 665 1218 533 c 0,8,9
 1118 420 1118 420 910 348 c 1,10,11
 956 310 956 310 1081 226 c 0,12,13
 1142 186 1142 186 1142 154 c 0,14,15
 1142 144 1142 144 1138 132 c 0,16,17
 1127 97 1127 97 1092 97 c 0,18,19
 1052 97 1052 97 923 165 c 0,20,21
 780 239 780 239 708 254 c 0,22,23
 586 275 586 275 465 295 c 1,24,25
 345 324 345 324 340 396 c 0,26,27
 339.666666667 401.166666667 339.666666667 401.166666667 339.666666667 406.1875 c 0,28,29
 339.666666667 461.416666667 339.666666667 461.416666667 380 499 c 0,30,31
 419 534 419 534 470 536 c 0,32,33
 473.631578947 536.105263158 473.631578947 536.105263158 477.260387812 536.105263158 c 0,34,35
 542.578947368 536.105263158 542.578947368 536.105263158 607 502 c 0,36,37
 675 466 675 466 734 466 c 0,38,39
 880 466 880 466 1015 555 c 0,40,41
 1182.64021164 667.074074074 1182.64021164 667.074074074 1182.64021164 858.089835111 c 0,42,43
 1182.64021164 869.894179894 1182.64021164 869.894179894 1182 882 c 0,44,45
 1172 1058 1172 1058 1081 1122 c 0,46,47
 995 1181 995 1181 760 1188 c 0,48,49
 751.342857143 1188.25714286 751.342857143 1188.25714286 742.590204082 1188.25714286 c 0,50,51
 649.228571429 1188.25714286 649.228571429 1188.25714286 545 1159 c 0,52,53
 427 1127 427 1127 410 1127 c 0,54,55
 370 1127 370 1127 352 1168 c 0,56,57
 343 1188 343 1188 343 1206 c 0,58,59
 343 1327 343 1327 802 1342 c 0,0,1
EndSplineSet
Validated: 1
EndChar

StartChar: three
Encoding: 51 51 22
GlifName: three
Width: 1582
Flags: W
LayerCount: 2
Fore
SplineSet
1138 1032 m 0,0,1
 1138 1040 1138 1040 1138 1044 c 0,2,3
 1138 1049 1138 1049 1138 1051 c 128,-1,4
 1138 1053 1138 1053 1138 1055 c 128,-1,5
 1138 1057 1138 1057 1138 1059 c 128,-1,6
 1138.10792952 1060.98898678 1138.10792952 1060.98898678 1138.10792952 1062.94730637 c 0,7,8
 1138.10792952 1188 1138.10792952 1188 698 1188 c 0,9,10
 654 1188 654 1188 538.5 1164 c 128,-1,11
 423 1140 423 1140 376 1140 c 0,12,13
 298 1140 298 1140 284 1188 c 0,14,15
 281 1197 281 1197 281 1206 c 0,16,17
 281 1284 281 1284 491 1318 c 0,18,19
 621 1340 621 1340 793.5 1340 c 128,-1,20
 966 1340 966 1340 1121 1264 c 0,21,22
 1300 1175 1300 1175 1300 1030 c 0,23,24
 1300 930 1300 930 1178 812 c 0,25,26
 1178 812 1178 812 1178 808 c 128,-1,27
 1178 804 1178 804 1228 750.5 c 128,-1,28
 1278 697 1278 697 1278 612 c 2,29,-1
 1278 567 l 2,30,31
 1278 562 1278 562 1278 557 c 128,-1,32
 1278 552 1278 552 1278 548 c 0,33,34
 1278 543 1278 543 1278 539 c 0,35,36
 1278.41142857 534.234285714 1278.41142857 534.234285714 1278.41142857 529.509714286 c 0,37,38
 1278.41142857 396.434285714 1278.41142857 396.434285714 952 296 c 0,39,40
 950 295 950 295 950 290.5 c 128,-1,41
 950 286 950 286 1076.5 241.5 c 128,-1,42
 1203 197 1203 197 1203 146 c 0,43,44
 1203 138 1203 138 1200 130 c 0,45,46
 1188 96 1188 96 1126 96 c 128,-1,47
 1064 96 1064 96 926 143 c 128,-1,48
 788 190 788 190 658 236 c 1,49,50
 540 267 540 267 421 298 c 1,51,52
 280 346 280 346 280 429 c 2,53,-1
 280 438 l 2,54,55
 280 529 280 529 402 529 c 0,56,57
 490 529 490 529 580 459.5 c 128,-1,58
 670 390 670 390 777 390 c 0,59,60
 811 390 811 390 886 415 c 128,-1,61
 961 440 961 440 997 458 c 0,62,63
 1116 517 1116 517 1116 593 c 0,64,65
 1116 603 1116 603 1114 612 c 0,66,67
 1090 741 1090 741 940 741 c 0,68,69
 902 741 902 741 781.5 726 c 128,-1,70
 661 711 661 711 604 711 c 0,71,72
 372 711 372 711 372 806 c 0,73,74
 372 810 372 810 372 813 c 0,75,76
 372 817 372 817 372 817 c 0,77,78
 372 818 372 818 372 819 c 128,-1,79
 372 820 372 820 372 821 c 128,-1,80
 371.942857143 821.971428571 371.942857143 821.971428571 371.942857143 822.94122449 c 0,81,82
 371.942857143 855.914285714 371.942857143 855.914285714 438 887 c 0,83,84
 506 919 506 919 582 919 c 0,85,86
 661 919 661 919 765.5 903.5 c 128,-1,87
 870 888 870 888 925 888 c 0,88,89
 1138 888 1138 888 1138 1032 c 0,0,1
EndSplineSet
Validated: 1
EndChar

StartChar: four
Encoding: 52 52 23
GlifName: four
Width: 1582
Flags: W
LayerCount: 2
Fore
SplineSet
798 726 m 4,0,1
 919 726 919 726 1008 806 c 4,2,3
 1090 879 1090 879 1090 966 c 4,4,5
 1090 1068 1090 1068 1009 1125 c 4,6,7
 955 1163 955 1163 894 1168 c 5,8,-1
 894 1324 l 5,9,10
 1097 1292 1097 1292 1178 1207 c 4,11,12
 1254 1127 1254 1127 1254 966 c 4,13,14
 1254 877 1254 877 1214 814 c 4,15,16
 1197 787 1197 787 1138 731 c 4,17,18
 1098 692 1098 692 1098 660 c 4,19,20
 1098 652 1098 652 1128 621 c 4,21,22
 1165 583 1165 583 1184 544 c 4,23,24
 1214 483 1214 483 1214 400 c 4,25,26
 1214 254 1214 254 1088 168 c 4,27,28
 972 88 972 88 796 88 c 4,29,30
 614 88 614 88 500 168 c 4,31,32
 378 252 378 252 378 400 c 4,33,34
 378 482 378 482 409 540 c 4,35,36
 426 572 426 572 465 612 c 4,37,38
 496 643 496 643 496 660 c 4,39,40
 496 689 496 689 455 729 c 4,41,42
 397 784 397 784 377 815 c 4,43,44
 336 881 336 881 336 974 c 4,45,46
 336 1120 336 1120 432 1212 c 4,47,48
 522 1299 522 1299 680 1324 c 5,49,-1
 680 1168 l 5,50,51
 496 1122 496 1122 496 966 c 4,52,53
 496 872 496 872 562 806 c 4,54,55
 643 726 643 726 798 726 c 4,0,1
798 588 m 4,56,57
 667 588 667 588 610 554 c 4,58,59
 538 512 538 512 538 400 c 4,60,61
 538 238 538 238 796 238 c 4,62,63
 1048 238 1048 238 1048 400 c 4,64,65
 1048 518 1048 518 975 559 c 4,66,67
 923 588 923 588 798 588 c 4,56,57
EndSplineSet
Validated: 1
EndChar

StartChar: five
Encoding: 53 53 24
GlifName: five
Width: 1582
Flags: W
LayerCount: 2
Fore
SplineSet
1230 90 m 5,0,-1
 1077 90 l 5,1,-1
 1077 398 l 5,2,3
 1034 358 1034 358 949 325 c 4,4,5
 856 287 856 287 781 287 c 4,6,7
 595 287 595 287 453 385 c 4,8,9
 360 449 360 449 327 512 c 5,10,11
 329 522 329 522 392 701 c 4,12,13
 458 887 458 887 468 945 c 4,14,15
 471 959 471 959 471 977 c 4,16,17
 471 1041 471 1041 442 1087 c 4,18,19
 406 1146 406 1146 335 1146 c 6,20,-1
 266 1146 l 5,21,-1
 266 1288 l 5,22,-1
 436 1288 l 6,23,24
 510 1288 510 1288 568 1181 c 4,25,26
 621 1083 621 1083 621 979 c 4,27,28
 621 956 621 956 618 936 c 4,29,30
 583 750 583 750 486 543 c 5,31,32
 615 438 615 438 826 438 c 4,33,34
 874 438 874 438 966 487 c 4,35,36
 1054 535 1054 535 1077 568 c 5,37,-1
 1077 1288 l 5,38,-1
 1230 1288 l 5,39,-1
 1230 90 l 5,0,-1
EndSplineSet
Validated: 1
EndChar

StartChar: six
Encoding: 54 54 25
GlifName: six
Width: 1582
Flags: W
LayerCount: 2
Fore
SplineSet
834 1226 m 0,0,1
 836 1227 836 1227 836 1229 c 0,2,3
 836 1235 836 1235 794.5 1291 c 128,-1,4
 753 1347 753 1347 752 1376 c 0,5,6
 751.829787234 1382 751.829787234 1382 751.829787234 1387.86962426 c 0,7,8
 751.829787234 1519.93617021 751.829787234 1519.93617021 838 1586 c 0,9,10
 910 1641 910 1641 1027 1641 c 0,11,12
 1101 1641 1101 1641 1161 1619.5 c 128,-1,13
 1221 1598 1221 1598 1221 1575 c 0,14,15
 1221 1563 1221 1563 1202 1554 c 1,16,17
 906 1554 906 1554 906 1414 c 0,18,19
 906 1369 906 1369 924 1334 c 0,20,21
 930 1323 930 1323 980 1250 c 0,22,23
 1009 1207 1009 1207 1084 1174 c 0,24,25
 1138.15 1149.3 1138.15 1149.3 1138.15 1122.795 c 0,26,27
 1138.15 1121.4 1138.15 1121.4 1138 1120 c 0,28,29
 1126 1020 1126 1020 1054 1020 c 0,30,31
 1041 1020 1041 1020 1028 1024 c 0,32,33
 1007 1030 1007 1030 862 1079 c 0,34,35
 812 1096 812 1096 748 1096 c 0,36,37
 640 1096 640 1096 564 1047 c 0,38,39
 491.8 1000.45 491.8 1000.45 491.8 933.1425 c 0,40,41
 491.8 929.6 491.8 929.6 492 926 c 0,42,43
 502 721 502 721 699 721 c 0,44,45
 738 721 738 721 813 737.5 c 128,-1,46
 888 754 888 754 927 754 c 0,47,48
 1003 754 1003 754 1057.5 729 c 128,-1,49
 1112 704 1112 704 1114 668 c 0,50,51
 1114.17821782 664.910891089 1114.17821782 664.910891089 1114.17821782 661.913537888 c 0,52,53
 1114.17821782 564 1114.17821782 564 924 564 c 0,54,55
 887 564 887 564 813 572.5 c 128,-1,56
 739 581 739 581 702 581 c 0,57,58
 516 581 516 581 502 414 c 0,59,60
 501 399 501 399 501 385 c 0,61,62
 501 276 501 276 586 247 c 0,63,64
 629 232 629 232 780 232 c 2,65,-1
 1036 232 l 2,66,67
 1087 232 1087 232 1105 227 c 0,68,69
 1141 215 1141 215 1144 176 c 0,70,71
 1144.3 171.6 1144.3 171.6 1144.3 167.42 c 0,72,73
 1144.3 88 1144.3 88 1036 88 c 2,74,-1
 620 88 l 2,75,76
 503 88 503 88 423.5 179.5 c 128,-1,77
 344 271 344 271 344 408 c 0,78,79
 344 505 344 505 398 566 c 0,80,81
 446.166666667 621.722222222 446.166666667 621.722222222 446.166666667 666.740740741 c 0,82,83
 446.166666667 669.388888889 446.166666667 669.388888889 446 672 c 0,84,85
 445 686 445 686 391 767 c 0,86,87
 340 844 340 844 340 948 c 0,88,89
 340 1074 340 1074 440 1147 c 0,90,91
 523 1208 523 1208 657 1225 c 0,92,93
 703.619047619 1230.76190476 703.619047619 1230.76190476 749.963718821 1230.76190476 c 0,94,95
 792.095238095 1230.76190476 792.095238095 1230.76190476 834 1226 c 0,0,1
EndSplineSet
Validated: 1
EndChar

StartChar: seven
Encoding: 55 55 26
GlifName: seven
Width: 1582
Flags: W
LayerCount: 2
Fore
SplineSet
1278 920 m 0,0,1
 1278 914 1278 914 1278 908 c 128,-1,2
 1278 902 1278 902 1278 897 c 0,3,4
 1278.10227273 891.715909091 1278.10227273 891.715909091 1278.10227273 886.458548554 c 0,5,6
 1278.10227273 737.5 1278.10227273 737.5 1196 610 c 0,7,8
 1127 503 1127 503 1032 434 c 0,9,10
 883 327 883 327 728 261 c 0,11,12
 615 211 615 211 503 162 c 0,13,14
 334 92 334 92 273 92 c 0,15,16
 217 92 217 92 217 128 c 0,17,18
 217 168 217 168 420.5 263 c 128,-1,19
 624 358 624 358 639 365 c 0,20,21
 763 427 763 427 848 486 c 0,22,23
 982 580 982 580 1028 639 c 0,24,25
 1090 718 1090 718 1112 856 c 0,26,27
 1117 887 1117 887 1117 916 c 0,28,29
 1117 1038 1117 1038 1034 1105 c 0,30,31
 945 1177 945 1177 797 1177 c 0,32,33
 794 1177 794 1177 792 1177 c 128,-1,34
 790 1177 790 1177 787 1177 c 0,35,36
 784.8203125 1177.0703125 784.8203125 1177.0703125 782.645568848 1177.0703125 c 0,37,38
 692.03125 1177.0703125 692.03125 1177.0703125 610 1055 c 0,39,40
 560 981 560 981 558 978 c 0,41,42
 521 933 521 933 484 933 c 0,43,44
 390 933 390 933 390 1041 c 0,45,46
 390 1150 390 1150 541 1244 c 0,47,48
 683 1332 683 1332 825 1332 c 0,49,50
 1028 1332 1028 1332 1136 1235 c 0,51,52
 1278 1107 1278 1107 1278 920 c 0,0,1
EndSplineSet
Validated: 1
EndChar

StartChar: eight
Encoding: 56 56 27
GlifName: eight
Width: 1582
Flags: W
LayerCount: 2
Fore
SplineSet
1272 966 m 1,0,-1
 480 966 l 1,1,2
 476 931 476 931 476 886 c 0,3,4
 476 689 476 689 552 552 c 0,5,6
 666 346 666 346 820 279 c 0,7,8
 881 252 881 252 1014 242 c 1,9,10
 1099 244 1099 244 1184 245 c 1,11,12
 1272 238 1272 238 1272 152 c 0,13,14
 1272 150 1272 150 1272 148 c 0,15,16
 1272.08411215 146.23364486 1272.08411215 146.23364486 1272.08411215 144.516813696 c 0,17,18
 1272.08411215 85 1272.08411215 85 1171 85 c 0,19,20
 1156 85 1156 85 1118.5 86.5 c 128,-1,21
 1081 88 1081 88 1060 88 c 0,22,23
 598 88 598 88 396 510 c 0,24,25
 326 657 326 657 326 872 c 0,26,27
 326 925 326 925 330 966 c 1,28,-1
 228 966 l 2,29,30
 169 966 169 966 169 1034 c 0,31,32
 169 1077 169 1077 191.5 1129 c 128,-1,33
 214 1181 214 1181 242 1208 c 0,34,35
 333 1295 333 1295 441 1295 c 0,36,37
 508 1295 508 1295 508 1236 c 2,38,-1
 508 1120 l 1,39,-1
 1272 1120 l 1,40,-1
 1272 966 l 1,0,-1
EndSplineSet
Validated: 1
EndChar

StartChar: nine
Encoding: 57 57 28
GlifName: nine
Width: 1582
Flags: W
LayerCount: 2
Fore
SplineSet
1170 966 m 2,0,-1
 498 966 l 1,1,2
 494 931 494 931 494 885 c 0,3,4
 494 688 494 688 570 552 c 0,5,6
 685 346 685 346 839 278 c 0,7,8
 906 248 906 248 1032 242 c 0,9,10
 1050.5 241 1050.5 241 1072 241 c 128,-1,11
 1093.5 241 1093.5 241 1118 242 c 0,12,13
 1182 244 1182 244 1189 244 c 0,14,15
 1242 244 1242 244 1264 228 c 0,16,17
 1290 208 1290 208 1290 152 c 0,18,19
 1290 85 1290 85 1189 85 c 0,20,21
 1174 85 1174 85 1137 86.5 c 128,-1,22
 1100 88 1100 88 1078 88 c 0,23,24
 618 88 618 88 416 510 c 0,25,26
 344 660 344 660 344 879 c 0,27,28
 344 928 344 928 348 966 c 1,29,-1
 246 966 l 2,30,31
 187 966 187 966 187 1034 c 0,32,33
 187 1076 187 1076 210 1130 c 0,34,35
 232 1181 232 1181 260 1208 c 0,36,37
 350 1295 350 1295 458 1295 c 0,38,39
 526 1295 526 1295 526 1236 c 2,40,-1
 526 1120 l 1,41,-1
 942 1120 l 1,42,43
 843.913461538 1200.60576923 843.913461538 1200.60576923 843.913461538 1332.14108728 c 0,44,45
 843.913461538 1336.04807692 843.913461538 1336.04807692 844 1340 c 0,46,47
 847 1472 847 1472 946 1537 c 0,48,49
 1025 1588 1025 1588 1144 1588 c 0,50,51
 1208 1588 1208 1588 1256 1573 c 128,-1,52
 1304 1558 1304 1558 1304 1539 c 0,53,54
 1304 1529 1304 1529 1286 1520 c 1,55,56
 1204 1514 1204 1514 1144 1497 c 0,57,58
 1000 1457 1000 1457 990 1372 c 0,59,60
 988 1357 988 1357 988 1343 c 0,61,62
 988 1289 988 1289 1016 1239 c 0,63,64
 1027 1221 1027 1221 1078 1152 c 0,65,66
 1107 1113 1107 1113 1194 1082 c 0,67,68
 1273 1054 1273 1054 1279.5 1035 c 128,-1,69
 1286 1016 1286 1016 1286 1002 c 0,70,71
 1286 964 1286 964 1227 964 c 0,72,73
 1217 964 1217 964 1197.5 965 c 128,-1,74
 1178 966 1178 966 1170 966 c 2,0,-1
EndSplineSet
Validated: 1
EndChar

StartChar: semicolon
Encoding: 59 59 30
AltUni2: 00037e.ffffffff.0
GlifName: semicolon
Width: 1582
Flags: W
LayerCount: 2
Fore
SplineSet
1216 1128 m 1,0,-1
 1216 614 l 1,1,-1
 562 614 l 1,2,3
 558 577 558 577 558 548 c 0,4,5
 558 456 558 456 608 382 c 0,6,7
 703 241 703 241 882 226 c 0,8,9
 944 221 944 221 1068 268 c 0,10,11
 1197 317 1197 317 1212 317 c 256,12,13
 1227 317 1227 317 1227 298 c 0,14,15
 1227 241 1227 241 1141 176 c 0,16,17
 1035 95 1035 95 878 90 c 0,18,19
 565 80 565 80 446 346 c 0,20,21
 397 457 397 457 390 614 c 1,22,-1
 292 610 l 2,23,24
 238 608 238 608 238 674 c 0,25,26
 238 783 238 783 315.5 864 c 128,-1,27
 393 945 393 945 496 945 c 0,28,29
 558 945 558 945 558 890 c 2,30,-1
 558 776 l 1,31,-1
 1044 776 l 1,32,-1
 1044 1128 l 1,33,-1
 196 1128 l 1,34,-1
 196 1288 l 1,35,-1
 1400 1288 l 1,36,-1
 1400 1128 l 1,37,-1
 1216 1128 l 1,0,-1
EndSplineSet
EndChar

StartChar: at
Encoding: 64 64 35
GlifName: at
Width: 7
Flags: W
LayerCount: 2
Fore
SplineSet
2722 -1200 m 1,0,-1
 2769 -1200 l 1,1,2
 2672 -1350 2672 -1350 2542 -1451 c 0,3,4
 2357 -1594 2357 -1594 2105.5 -1672 c 128,-1,5
 1854 -1750 1854 -1750 1584 -1750 c 0,6,7
 1189 -1750 1189 -1750 863 -1597.5 c 128,-1,8
 537 -1445 537 -1445 396 -1200 c 1,9,-1
 450 -1200 l 1,10,11
 537 -1322 537 -1322 687.5 -1400.5 c 128,-1,12
 838 -1479 838 -1479 1069 -1518 c 128,-1,13
 1300 -1557 1300 -1557 1551 -1557 c 0,14,15
 1824 -1557 1824 -1557 2047 -1524 c 0,16,17
 2223 -1498 2223 -1498 2329.5 -1461.5 c 128,-1,18
 2436 -1425 2436 -1425 2534 -1362.5 c 128,-1,19
 2632 -1300 2632 -1300 2722 -1200 c 1,0,-1
EndSplineSet
Validated: 1
EndChar

StartChar: D
Encoding: 68 68 39
GlifName: D_
Width: 1582
Flags: W
LayerCount: 2
Fore
SplineSet
1384 1128 m 1,0,-1
 1178 1128 l 1,1,-1
 1178 90 l 1,2,-1
 1016 90 l 1,3,-1
 1016 352 l 1,4,5
 859 268 859 268 740 268 c 0,6,7
 554 268 554 268 397 375 c 0,8,9
 280 455 280 455 260 512 c 1,10,11
 296 593 296 593 367 822 c 1,12,13
 380.349206349 878.158730159 380.349206349 878.158730159 380.349206349 947.454774502 c 0,14,15
 380.349206349 1028.6984127 380.349206349 1028.6984127 362 1128 c 1,16,-1
 210 1128 l 1,17,-1
 210 1288 l 1,18,-1
 1384 1288 l 1,19,-1
 1384 1128 l 1,0,-1
1016 1128 m 1,20,-1
 526 1128 l 1,21,22
 546.891304348 1008.04347826 546.891304348 1008.04347826 546.891304348 916.244801512 c 0,23,24
 546.891304348 871.826086957 546.891304348 871.826086957 542 834 c 0,25,26
 527 717 527 717 450 546 c 1,27,28
 591 432 591 432 784 432 c 0,29,30
 846 432 846 432 1016 534 c 1,31,-1
 1016 1128 l 1,20,-1
1224 -400 m 1,32,-1
 264 -400 l 1,33,-1
 264 -312 l 1,34,-1
 1224 -312 l 1,35,-1
 1224 -400 l 1,32,-1
EndSplineSet
Validated: 1
EndChar

StartChar: E
Encoding: 69 69 40
GlifName: E_
Width: 0
Flags: W
LayerCount: 2
Fore
SplineSet
1303 3639 m 1,0,-1
 1303 2498 l 1,1,-1
 1138 2498 l 1,2,-1
 1138 3309 l 1,3,-1
 1 3309 l 1,4,-1
 1 3640 l 1,5,-1
 1229 3640 l 1,6,-1
 1229 3639 l 1,7,-1
 1303 3639 l 1,0,-1
EndSplineSet
Validated: 1
EndChar

StartChar: G
Encoding: 71 71 42
GlifName: G_
Width: 1582
Flags: WO
LayerCount: 2
Fore
SplineSet
1226 1128 m 1,0,-1
 1226 90 l 1,1,-1
 1066 90 l 1,2,-1
 1066 1128 l 1,3,-1
 862 1128 l 1,4,-1
 862 406 l 2,5,6
 862 249 862 249 776 168 c 0,7,8
 704 100 704 100 598 100 c 0,9,10
 426 100 426 100 298 257 c 0,11,12
 177 405 177 405 177 578 c 0,13,14
 177 759 177 759 320 834 c 0,15,16
 411 882 411 882 700 882 c 1,17,-1
 700 1128 l 1,18,-1
 126 1128 l 1,19,-1
 126 1288 l 1,20,-1
 1440 1288 l 1,21,-1
 1440 1128 l 1,22,-1
 1226 1128 l 1,0,-1
700 724 m 1,23,24
 577 720 577 720 434 710 c 1,25,26
 342 682 342 682 342 569 c 0,27,28
 342 462 342 462 416 364 c 0,29,30
 496 260 496 260 598 260 c 0,31,32
 673 260 673 260 700 342 c 1,33,-1
 700 724 l 1,23,24
1209 -400 m 1,34,-1
 249 -400 l 1,35,-1
 249 -312 l 1,36,-1
 1209 -312 l 1,37,-1
 1209 -400 l 1,34,-1
EndSplineSet
EndChar

StartChar: L
Encoding: 76 76 47
GlifName: L_
Width: 0
Flags: W
LayerCount: 2
Fore
SplineSet
-428 -824 m 1,0,-1
 -492 -902 l 1,1,-1
 -544 -960 l 1,2,3
 -566 -972 -566 -972 -578 -972 c 0,4,5
 -594 -972 -594 -972 -662 -892 c 2,6,-1
 -725 -820 l 1,7,-1
 -725 -783 l 1,8,-1
 -650 -681 l 2,9,10
 -622 -643 -622 -643 -594 -627 c 1,11,12
 -566 -627 -566 -627 -428 -783 c 1,13,-1
 -426 -804 l 1,14,-1
 -428 -824 l 1,0,-1
-873 -824 m 1,15,-1
 -937 -902 l 1,16,-1
 -989 -960 l 1,17,18
 -1011 -972 -1011 -972 -1023 -972 c 0,19,20
 -1039 -972 -1039 -972 -1107 -892 c 2,21,-1
 -1170 -820 l 1,22,-1
 -1170 -783 l 1,23,-1
 -1095 -681 l 2,24,25
 -1067 -643 -1067 -643 -1039 -627 c 1,26,27
 -1011 -627 -1011 -627 -873 -783 c 1,28,-1
 -871 -804 l 1,29,-1
 -873 -824 l 1,15,-1
EndSplineSet
Validated: 1
EndChar

StartChar: M
Encoding: 77 77 48
GlifName: M_
Width: 1582
Flags: W
LayerCount: 2
Fore
SplineSet
1208 1128 m 1,0,-1
 1208 90 l 1,1,-1
 1046 90 l 1,2,-1
 1046 588 l 1,3,-1
 588 588 l 1,4,5
 567 480 567 480 514 272 c 1,6,7
 475 148 475 148 384 148 c 0,8,9
 267 148 267 148 267 271 c 0,10,11
 267 325 267 325 292 380 c 0,12,13
 329 457 329 457 366 534 c 0,14,15
 413 644 413 644 424 774 c 0,16,17
 431 850 431 850 431 907 c 0,18,19
 431 1128 431 1128 344 1128 c 2,20,-1
 186 1128 l 1,21,-1
 186 1288 l 1,22,-1
 398 1288 l 2,23,24
 557 1288 557 1288 584 1056 c 0,25,26
 592 988 592 988 592 748 c 1,27,-1
 1046 748 l 1,28,-1
 1046 1288 l 1,29,-1
 1390 1288 l 1,30,-1
 1390 1128 l 1,31,-1
 1208 1128 l 1,0,-1
887 1370 m 1,32,-1
 791 1370 l 1,33,-1
 791 2058 l 1,34,-1
 887 2058 l 1,35,-1
 887 1370 l 1,32,-1
EndSplineSet
Validated: 1
EndChar

StartChar: N
Encoding: 78 78 49
GlifName: N_
Width: 1582
Flags: W
LayerCount: 2
Fore
SplineSet
1691 1135 m 1,0,-1
 1515 1135 l 1,1,-1
 1515 95 l 1,2,-1
 1355 95 l 1,3,-1
 1355 1135 l 1,4,-1
 1165 1135 l 1,5,-1
 1165 1295 l 1,6,-1
 1355 1295 l 1,7,8
 1357 1457 1357 1457 1341 1511 c 0,9,10
 1300 1649 1300 1649 1161 1649 c 0,11,12
 1058 1649 1058 1649 1013 1585 c 0,13,14
 985 1546 985 1546 977 1483 c 0,15,16
 973 1444 973 1444 969 1405 c 1,17,-1
 821 1405 l 1,18,19
 810 1505 810 1505 851 1617 c 0,20,21
 880 1697 880 1697 962 1750 c 0,22,23
 1041 1801 1041 1801 1129 1801 c 0,24,25
 1359 1801 1359 1801 1445 1659 c 0,26,27
 1527 1523 1527 1523 1515 1295 c 1,28,-1
 1691 1295 l 1,29,-1
 1691 1135 l 1,0,-1
618 1136 m 1,30,-1
 618 934 l 1,31,32
 773 904 773 904 887 787 c 0,33,34
 1006 663 1006 663 1006 511 c 0,35,36
 1006 188 1006 188 711 98 c 1,37,-1
 711 258 l 1,38,39
 789 299 789 299 812 335 c 0,40,41
 847 390 847 390 847 511 c 0,42,43
 847 620 847 620 748 698 c 0,44,45
 653 773 653 773 535 773 c 0,46,47
 418 773 418 773 323 698 c 0,48,49
 224 620 224 620 224 511 c 0,50,51
 224 387 224 387 259 335 c 0,52,53
 284 298 284 298 360 258 c 1,54,-1
 360 98 l 1,55,56
 65 188 65 188 65 511 c 0,57,58
 65 663 65 663 185 787 c 0,59,60
 298 904 298 904 453 934 c 1,61,-1
 453 1136 l 1,62,-1
 4 1136 l 1,63,-1
 4 1296 l 1,64,-1
 1160 1296 l 1,65,-1
 1160 1136 l 1,66,-1
 618 1136 l 1,30,-1
1079 -400 m 1,67,-1
 119 -400 l 1,68,-1
 119 -312 l 1,69,-1
 1079 -312 l 1,70,-1
 1079 -400 l 1,67,-1
EndSplineSet
EndChar

StartChar: Q
Encoding: 81 81 52
GlifName: Q_
Width: 0
Flags: W
LayerCount: 2
Fore
SplineSet
271 3639 m 1,0,-1
 271 3640 l 1,1,-1
 1499 3640 l 1,2,-1
 1499 3309 l 1,3,-1
 362 3309 l 1,4,-1
 362 2498 l 1,5,-1
 197 2498 l 1,6,-1
 197 3639 l 1,7,-1
 271 3639 l 1,0,-1
EndSplineSet
Validated: 1
EndChar

StartChar: R
Encoding: 82 82 53
GlifName: R_
Width: 1582
Flags: W
LayerCount: 2
Fore
SplineSet
436 1846 m 0,0,1
 623 1844 623 1844 789.5 1742 c 128,-1,2
 956 1640 956 1640 1068 1466 c 0,3,4
 1102 1413 1102 1413 1102 1391 c 0,5,6
 1102 1373 1102 1373 1089 1373 c 0,7,8
 1078 1373 1078 1373 950 1479 c 0,9,10
 804 1599 804 1599 686 1648 c 0,11,12
 603.5 1682.57142857 603.5 1682.57142857 444.448979592 1682.57142857 c 0,13,14
 401.071428571 1682.57142857 401.071428571 1682.57142857 352 1680 c 1,15,16
 299 1709 299 1709 299 1753 c 0,17,18
 299 1791 299 1791 338 1819 c 0,19,20
 375.655172414 1846.03448276 375.655172414 1846.03448276 431.954815696 1846.03448276 c 0,21,22
 433.965517241 1846.03448276 433.965517241 1846.03448276 436 1846 c 0,0,1
1174 1138 m 1,23,-1
 1174 418 l 2,24,25
 1174 291 1174 291 1114 203 c 0,26,27
 1043 97 1043 97 911 97 c 0,28,29
 890 97 890 97 868 100 c 0,30,31
 687 122 687 122 509 331 c 0,32,33
 334 536 334 536 334 712 c 0,34,35
 334 910 334 910 588 910 c 2,36,-1
 1010 910 l 1,37,-1
 1010 1138 l 1,38,-1
 280 1138 l 1,39,-1
 280 1298 l 1,40,-1
 1406 1298 l 1,41,-1
 1406 1138 l 1,42,-1
 1174 1138 l 1,23,-1
1010 750 m 1,43,-1
 630 750 l 2,44,45
 559 750 559 750 534 734 c 128,-1,46
 509 718 509 718 514 676 c 0,47,48
 526 575 526 575 656 420 c 0,49,50
 795 255 795 255 899 255 c 0,51,52
 948 255 948 255 980 297 c 0,53,54
 1010 335 1010 335 1010 386 c 2,55,-1
 1010 750 l 1,43,-1
1199 -400 m 1,56,-1
 386 -400 l 1,57,-1
 386 -312 l 1,58,-1
 1199 -312 l 1,59,-1
 1199 -400 l 1,56,-1
EndSplineSet
Validated: 1
EndChar

StartChar: U
Encoding: 85 85 56
GlifName: U_
Width: 0
Flags: W
LayerCount: 2
Fore
SplineSet
-406 2303 m 1,0,-1
 -470 2225 l 1,1,-1
 -522 2167 l 1,2,3
 -544 2155 -544 2155 -556 2155 c 0,4,5
 -572 2155 -572 2155 -640 2235 c 2,6,-1
 -703 2307 l 1,7,-1
 -703 2344 l 1,8,-1
 -628 2446 l 2,9,10
 -600 2484 -600 2484 -572 2500 c 1,11,12
 -544 2500 -544 2500 -406 2344 c 1,13,-1
 -404 2323 l 1,14,-1
 -406 2303 l 1,0,-1
-889 2303 m 1,15,-1
 -953 2225 l 1,16,-1
 -1005 2167 l 1,17,18
 -1027 2155 -1027 2155 -1039 2155 c 0,19,20
 -1055 2155 -1055 2155 -1123 2235 c 2,21,-1
 -1186 2307 l 1,22,-1
 -1186 2344 l 1,23,-1
 -1111 2446 l 2,24,25
 -1083 2484 -1083 2484 -1055 2500 c 1,26,27
 -1027 2500 -1027 2500 -889 2344 c 1,28,-1
 -887 2323 l 1,29,-1
 -889 2303 l 1,15,-1
EndSplineSet
Validated: 1
EndChar

StartChar: W
Encoding: 87 87 58
GlifName: W_
Width: 0
Flags: W
LayerCount: 2
Fore
SplineSet
-46 3643 m 1,0,-1
 1547 3643 l 1,1,-1
 1565 3625 l 1,2,-1
 1565 3328 l 1,3,-1
 1547 3310 l 1,4,-1
 917 3310 l 1,5,-1
 917 3166 l 1,6,-1
 899 3148 l 1,7,-1
 602 3148 l 1,8,-1
 584 3166 l 1,9,-1
 584 3310 l 1,10,-1
 -46 3310 l 1,11,-1
 -64 3328 l 1,12,-1
 -64 3625 l 1,13,-1
 -46 3643 l 1,0,-1
602 2995 m 1,14,-1
 899 2995 l 1,15,-1
 917 2977 l 1,16,-1
 917 2842 l 1,17,-1
 899 2824 l 1,18,-1
 602 2824 l 1,19,-1
 584 2842 l 1,20,-1
 584 2977 l 1,21,-1
 602 2995 l 1,14,-1
602 2671 m 1,22,-1
 899 2671 l 1,23,-1
 917 2653 l 1,24,-1
 917 2518 l 1,25,-1
 899 2500 l 1,26,-1
 602 2500 l 1,27,-1
 584 2518 l 1,28,-1
 584 2653 l 1,29,-1
 602 2671 l 1,22,-1
EndSplineSet
Validated: 1
EndChar

StartChar: bracketleft
Encoding: 91 91 62
GlifName: bracketleft
Width: 1582
Flags: W
LayerCount: 2
Fore
SplineSet
1476 1128 m 1,0,-1
 1476 558 l 1,1,-1
 1320 558 l 1,2,-1
 1320 1128 l 1,3,-1
 1186 1128 l 1,4,-1
 1186 1288 l 1,5,-1
 1676 1288 l 1,6,-1
 1676 1128 l 1,7,-1
 1476 1128 l 1,0,-1
996 1128 m 1,8,-1
 996 614 l 1,9,-1
 342 614 l 1,10,11
 338 577 338 577 338 548 c 0,12,13
 338 456 338 456 388 382 c 0,14,15
 483 241 483 241 662 226 c 0,16,17
 724 221 724 221 848 268 c 0,18,19
 977 317 977 317 992 317 c 256,20,21
 1007 317 1007 317 1007 298 c 0,22,23
 1007 241 1007 241 921 176 c 0,24,25
 815 95 815 95 658 90 c 0,26,27
 345 80 345 80 226 346 c 0,28,29
 177 457 177 457 170 614 c 1,30,-1
 72 610 l 2,31,32
 18 608 18 608 18 674 c 0,33,34
 18 783 18 783 95.5 864 c 128,-1,35
 173 945 173 945 276 945 c 0,36,37
 338 945 338 945 338 890 c 2,38,-1
 338 776 l 1,39,-1
 824 776 l 1,40,-1
 824 1128 l 1,41,-1
 -24 1128 l 1,42,-1
 -24 1288 l 1,43,-1
 1180 1288 l 1,44,-1
 1180 1128 l 1,45,-1
 996 1128 l 1,8,-1
EndSplineSet
EndChar

StartChar: backslash
Encoding: 92 92 63
GlifName: backslash
Width: 3136
Flags: W
LayerCount: 2
Fore
SplineSet
2845 1128 m 5,0,-1
 2845 408 l 6,1,2
 2845 281 2845 281 2785 193 c 4,3,4
 2714 87 2714 87 2582 87 c 4,5,6
 2561 87 2561 87 2539 90 c 4,7,8
 2358 112 2358 112 2180 321 c 4,9,10
 2005 526 2005 526 2005 702 c 4,11,12
 2005 900 2005 900 2259 900 c 6,13,-1
 2681 900 l 5,14,-1
 2681 1128 l 5,15,-1
 1951 1128 l 5,16,-1
 1951 1288 l 5,17,-1
 3077 1288 l 5,18,-1
 3077 1128 l 5,19,-1
 2845 1128 l 5,0,-1
2681 740 m 5,20,-1
 2301 740 l 6,21,22
 2230 740 2230 740 2205 724 c 132,-1,23
 2180 708 2180 708 2185 666 c 4,24,25
 2197 565 2197 565 2327 410 c 4,26,27
 2466 245 2466 245 2570 245 c 4,28,29
 2619 245 2619 245 2651 287 c 4,30,31
 2681 325 2681 325 2681 376 c 6,32,-1
 2681 740 l 5,20,-1
403 1128 m 5,33,-1
 403 88 l 5,34,-1
 243 88 l 5,35,-1
 243 1128 l 5,36,-1
 87 1128 l 5,37,-1
 87 1288 l 5,38,-1
 243 1288 l 5,39,40
 231 1518 231 1518 313 1654 c 4,41,42
 397 1794 397 1794 629 1794 c 4,43,44
 718 1794 718 1794 797.5 1744 c 132,-1,45
 877 1694 877 1694 907 1612 c 4,46,47
 948 1500 948 1500 937 1398 c 5,48,-1
 789 1398 l 5,49,50
 786 1429 786 1429 776 1506 c 4,51,52
 754 1642 754 1642 597 1642 c 4,53,54
 457 1642 457 1642 417 1506 c 4,55,56
 401 1452 401 1452 403 1288 c 5,57,-1
 745 1288 l 5,58,-1
 745 1128 l 5,59,-1
 403 1128 l 5,33,-1
1766 1128 m 5,60,-1
 1766 614 l 5,61,-1
 1112 614 l 5,62,63
 1108 577 1108 577 1108 548 c 4,64,65
 1108 456 1108 456 1158 382 c 4,66,67
 1253 241 1253 241 1432 226 c 4,68,69
 1494 221 1494 221 1618 268 c 4,70,71
 1747 317 1747 317 1762 317 c 260,72,73
 1777 317 1777 317 1777 298 c 4,74,75
 1777 241 1777 241 1691 176 c 4,76,77
 1585 95 1585 95 1428 90 c 4,78,79
 1115 80 1115 80 996 346 c 4,80,81
 947 457 947 457 940 614 c 5,82,-1
 842 610 l 6,83,84
 788 608 788 608 788 674 c 4,85,86
 788 783 788 783 865.5 864 c 132,-1,87
 943 945 943 945 1046 945 c 4,88,89
 1108 945 1108 945 1108 890 c 6,90,-1
 1108 776 l 5,91,-1
 1594 776 l 5,92,-1
 1594 1128 l 5,93,-1
 746 1128 l 5,94,-1
 746 1288 l 5,95,-1
 1950 1288 l 5,96,-1
 1950 1128 l 5,97,-1
 1766 1128 l 5,60,-1
2722 -1200 m 1,98,-1
 2769 -1200 l 1,99,100
 2672 -1350 2672 -1350 2542 -1451 c 0,101,102
 2357 -1594 2357 -1594 2105.5 -1672 c 128,-1,103
 1854 -1750 1854 -1750 1584 -1750 c 0,104,105
 1189 -1750 1189 -1750 863 -1597.5 c 128,-1,106
 537 -1445 537 -1445 396 -1200 c 1,107,-1
 450 -1200 l 1,108,109
 537 -1322 537 -1322 687.5 -1400.5 c 128,-1,110
 838 -1479 838 -1479 1069 -1518 c 128,-1,111
 1300 -1557 1300 -1557 1551 -1557 c 0,112,113
 1824 -1557 1824 -1557 2047 -1524 c 0,114,115
 2223 -1498 2223 -1498 2329.5 -1461.5 c 128,-1,116
 2436 -1425 2436 -1425 2534 -1362.5 c 128,-1,117
 2632 -1300 2632 -1300 2722 -1200 c 1,98,-1
EndSplineSet
EndChar

StartChar: bracketright
Encoding: 93 93 64
GlifName: bracketright
Width: 1582
Flags: W
LayerCount: 2
Fore
SplineSet
1398 1128 m 5,0,-1
 1398 558 l 5,1,-1
 1242 558 l 5,2,-1
 1242 1128 l 5,3,-1
 1108 1128 l 5,4,-1
 1108 1288 l 5,5,-1
 1598 1288 l 5,6,-1
 1598 1128 l 5,7,-1
 1398 1128 l 5,0,-1
874 1128 m 1,8,-1
 874 408 l 2,9,10
 874 281 874 281 814 193 c 0,11,12
 743 87 743 87 611 87 c 0,13,14
 590 87 590 87 568 90 c 0,15,16
 387 112 387 112 209 321 c 0,17,18
 34 526 34 526 34 702 c 0,19,20
 34 900 34 900 288 900 c 2,21,-1
 710 900 l 1,22,-1
 710 1128 l 1,23,-1
 -20 1128 l 1,24,-1
 -20 1288 l 1,25,-1
 1106 1288 l 1,26,-1
 1106 1128 l 1,27,-1
 874 1128 l 1,8,-1
710 740 m 1,28,-1
 330 740 l 2,29,30
 259 740 259 740 234 724 c 128,-1,31
 209 708 209 708 214 666 c 0,32,33
 226 565 226 565 356 410 c 0,34,35
 495 245 495 245 599 245 c 0,36,37
 648 245 648 245 680 287 c 0,38,39
 710 325 710 325 710 376 c 2,40,-1
 710 740 l 1,28,-1
EndSplineSet
Validated: 1
EndChar

StartChar: asciicircum
Encoding: 94 94 65
GlifName: asciicircum
Width: 7
Flags: W
LayerCount: 2
Fore
SplineSet
8925 -1200 m 1,0,-1
 9097 -1200 l 1,1,2
 8741 -1391 8741 -1391 8265 -1519 c 0,3,4
 7586 -1702 7586 -1702 6664 -1801 c 128,-1,5
 5742 -1900 5742 -1900 4752 -1900 c 0,6,7
 3304 -1900 3304 -1900 2108.5 -1705.5 c 128,-1,8
 913 -1511 913 -1511 396 -1200 c 1,9,-1
 594 -1200 l 1,10,11
 913 -1355 913 -1355 1465 -1455.5 c 128,-1,12
 2017 -1556 2017 -1556 2864 -1605.5 c 128,-1,13
 3711 -1655 3711 -1655 4631 -1655 c 0,14,15
 5632 -1655 5632 -1655 6450 -1613 c 0,16,17
 7095 -1580 7095 -1580 7485.5 -1533 c 128,-1,18
 7876 -1486 7876 -1486 8235.5 -1407 c 128,-1,19
 8595 -1328 8595 -1328 8925 -1200 c 1,0,-1
EndSplineSet
Validated: 1
EndChar

StartChar: underscore
Encoding: 95 95 66
GlifName: underscore
Width: 1582
Flags: W
LayerCount: 2
Fore
SplineSet
-72 440 m 1,0,-1
 -103 451 l 1,1,-1
 63 588 l 1,2,-1
 1688 588 l 1,3,-1
 1718 578 l 1,4,-1
 1534 440 l 1,5,-1
 -72 440 l 1,0,-1
EndSplineSet
Validated: 1
EndChar

StartChar: grave
Encoding: 96 96 67
GlifName: grave
Width: 0
Flags: W
LayerCount: 2
Fore
SplineSet
5823 -2000 m 1,0,-1
 5933 -2000 l 1,1,2
 5707 -2242 5707 -2242 5403 -2407 c 0,3,4
 4972 -2640 4972 -2640 4385 -2766.5 c 128,-1,5
 3798 -2893 3798 -2893 3168 -2893 c 0,6,7
 2246 -2893 2246 -2893 1485.5 -2645 c 128,-1,8
 725 -2397 725 -2397 396 -2000 c 1,9,-1
 522 -2000 l 1,10,11
 725 -2198 725 -2198 1076 -2326 c 128,-1,12
 1427 -2454 1427 -2454 1966 -2517 c 128,-1,13
 2505 -2580 2505 -2580 3091 -2580 c 0,14,15
 3728 -2580 3728 -2580 4248 -2527 c 0,16,17
 4659 -2484 4659 -2484 4907.5 -2424 c 128,-1,18
 5156 -2364 5156 -2364 5384.5 -2263 c 128,-1,19
 5613 -2162 5613 -2162 5823 -2000 c 1,0,-1
EndSplineSet
Validated: 1
EndChar

StartChar: d
Encoding: 100 100 71
GlifName: d
Width: 1582
Flags: W
LayerCount: 2
Fore
SplineSet
1384 1128 m 1,0,-1
 1178 1128 l 1,1,-1
 1178 90 l 1,2,-1
 1016 90 l 1,3,-1
 1016 352 l 1,4,5
 859 268 859 268 740 268 c 0,6,7
 554 268 554 268 397 375 c 0,8,9
 280 455 280 455 260 512 c 1,10,11
 296 593 296 593 367 822 c 1,12,13
 380.349206349 878.158730159 380.349206349 878.158730159 380.349206349 947.454774502 c 0,14,15
 380.349206349 1028.6984127 380.349206349 1028.6984127 362 1128 c 1,16,-1
 210 1128 l 1,17,-1
 210 1288 l 1,18,-1
 1384 1288 l 1,19,-1
 1384 1128 l 1,0,-1
1016 1128 m 1,20,-1
 526 1128 l 1,21,22
 546.891304348 1008.04347826 546.891304348 1008.04347826 546.891304348 916.244801512 c 0,23,24
 546.891304348 871.826086957 546.891304348 871.826086957 542 834 c 0,25,26
 527 717 527 717 450 546 c 1,27,28
 591 432 591 432 784 432 c 0,29,30
 846 432 846 432 1016 534 c 1,31,-1
 1016 1128 l 1,20,-1
EndSplineSet
Validated: 1
EndChar

StartChar: e
Encoding: 101 101 72
GlifName: e
Width: 0
Flags: W
LayerCount: 2
Fore
SplineSet
28 3643 m 0,0,1
 651 3643 651 3643 1108 3094 c 1,2,3
 1306 2811 1306 2811 1306 2509 c 1,4,-1
 1297 2500 l 1,5,-1
 1153 2500 l 2,6,7
 1137 2500 1137 2500 1108 2761 c 1,8,9
 1003 3063 1003 3063 775 3175 c 1,10,11
 486 3310 486 3310 10 3310 c 1,12,-1
 1 3319 l 1,13,-1
 1 3625 l 2,14,15
 1 3643 1 3643 28 3643 c 0,0,1
EndSplineSet
Validated: 1
EndChar

StartChar: g
Encoding: 103 103 74
GlifName: g
Width: 1582
Flags: W
LayerCount: 2
Fore
SplineSet
1256 1128 m 1,0,-1
 1256 90 l 1,1,-1
 1096 90 l 1,2,-1
 1096 1128 l 1,3,-1
 892 1128 l 1,4,-1
 892 406 l 2,5,6
 892 249 892 249 806 168 c 0,7,8
 734 100 734 100 628 100 c 0,9,10
 456 100 456 100 328 257 c 0,11,12
 207 405 207 405 207 578 c 0,13,14
 207 759 207 759 350 834 c 0,15,16
 441 882 441 882 730 882 c 1,17,-1
 730 1128 l 1,18,-1
 156 1128 l 1,19,-1
 156 1288 l 1,20,-1
 1470 1288 l 1,21,-1
 1470 1128 l 1,22,-1
 1256 1128 l 1,0,-1
730 724 m 1,23,24
 607 720 607 720 464 710 c 1,25,26
 372 682 372 682 372 569 c 0,27,28
 372 462 372 462 446 364 c 0,29,30
 526 260 526 260 628 260 c 0,31,32
 703 260 703 260 730 342 c 1,33,-1
 730 724 l 1,23,24
EndSplineSet
Validated: 1
EndChar

StartChar: l
Encoding: 108 108 79
GlifName: l
Width: 0
Flags: W
LayerCount: 2
Fore
SplineSet
-643 -824 m 1,0,-1
 -707 -902 l 1,1,-1
 -759 -960 l 1,2,3
 -781 -972 -781 -972 -793 -972 c 0,4,5
 -809 -972 -809 -972 -877 -892 c 2,6,-1
 -940 -820 l 1,7,-1
 -940 -783 l 1,8,-1
 -865 -681 l 2,9,10
 -837 -643 -837 -643 -809 -627 c 1,11,12
 -781 -627 -781 -627 -643 -783 c 1,13,-1
 -641 -804 l 1,14,-1
 -643 -824 l 1,0,-1
EndSplineSet
Validated: 1
EndChar

StartChar: m
Encoding: 109 109 80
GlifName: m
Width: 1582
Flags: W
LayerCount: 2
Fore
SplineSet
1198 1128 m 1,0,-1
 1198 90 l 1,1,-1
 1036 90 l 1,2,-1
 1036 588 l 1,3,-1
 578 588 l 1,4,5
 557 480 557 480 504 272 c 1,6,7
 465 148 465 148 374 148 c 0,8,9
 257 148 257 148 257 271 c 0,10,11
 257 325 257 325 282 380 c 0,12,13
 319 457 319 457 356 534 c 0,14,15
 403 644 403 644 414 774 c 0,16,17
 421 850 421 850 421 907 c 0,18,19
 421 1128 421 1128 334 1128 c 2,20,-1
 176 1128 l 1,21,-1
 176 1288 l 1,22,-1
 388 1288 l 2,23,24
 547 1288 547 1288 574 1056 c 0,25,26
 582 988 582 988 582 748 c 1,27,-1
 1036 748 l 1,28,-1
 1036 1288 l 1,29,-1
 1380 1288 l 1,30,-1
 1380 1128 l 1,31,-1
 1198 1128 l 1,0,-1
EndSplineSet
Validated: 1
EndChar

StartChar: n
Encoding: 110 110 81
GlifName: n
Width: 1593
Flags: W
LayerCount: 2
Fore
SplineSet
1691 1135 m 5,0,-1
 1515 1135 l 5,1,-1
 1515 95 l 5,2,-1
 1355 95 l 5,3,-1
 1355 1135 l 5,4,-1
 1165 1135 l 5,5,-1
 1165 1295 l 5,6,-1
 1355 1295 l 5,7,8
 1357 1457 1357 1457 1341 1511 c 4,9,10
 1300 1649 1300 1649 1161 1649 c 4,11,12
 1058 1649 1058 1649 1013 1585 c 4,13,14
 985 1546 985 1546 977 1483 c 4,15,16
 973 1444 973 1444 969 1405 c 5,17,-1
 821 1405 l 5,18,19
 810 1505 810 1505 851 1617 c 4,20,21
 880 1697 880 1697 962 1750 c 4,22,23
 1041 1801 1041 1801 1129 1801 c 4,24,25
 1359 1801 1359 1801 1445 1659 c 4,26,27
 1527 1523 1527 1523 1515 1295 c 5,28,-1
 1691 1295 l 5,29,-1
 1691 1135 l 5,0,-1
618 1136 m 5,30,-1
 618 934 l 5,31,32
 773 904 773 904 887 787 c 4,33,34
 1006 663 1006 663 1006 511 c 4,35,36
 1006 188 1006 188 711 98 c 5,37,-1
 711 258 l 5,38,39
 789 299 789 299 812 335 c 4,40,41
 847 390 847 390 847 511 c 4,42,43
 847 620 847 620 748 698 c 4,44,45
 653 773 653 773 535 773 c 4,46,47
 418 773 418 773 323 698 c 4,48,49
 224 620 224 620 224 511 c 4,50,51
 224 387 224 387 259 335 c 4,52,53
 284 298 284 298 360 258 c 5,54,-1
 360 98 l 5,55,56
 65 188 65 188 65 511 c 4,57,58
 65 663 65 663 185 787 c 4,59,60
 298 904 298 904 453 934 c 5,61,-1
 453 1136 l 5,62,-1
 4 1136 l 5,63,-1
 4 1296 l 5,64,-1
 1160 1296 l 5,65,-1
 1160 1136 l 5,66,-1
 618 1136 l 5,30,-1
EndSplineSet
EndChar

StartChar: p
Encoding: 112 112 83
GlifName: p
Width: 1582
Flags: W
LayerCount: 2
Fore
SplineSet
1164 1128 m 1,0,-1
 1164 90 l 1,1,-1
 1000 90 l 1,2,-1
 1000 366 l 1,3,4
 960 335 960 335 884 306 c 0,5,6
 793 272 793 272 720 272 c 0,7,8
 590 272 590 272 472 327 c 0,9,10
 383 368 383 368 314 436 c 0,11,12
 263.234375 485.875 263.234375 485.875 263.234375 507.194335938 c 0,13,14
 263.234375 509.8125 263.234375 509.8125 264 512 c 1,15,16
 259 515 259 515 259 525 c 0,17,18
 259 545 259 545 320 688 c 0,19,20
 392 856 392 856 404 942 c 0,21,22
 406 956 406 956 406 973 c 0,23,24
 406 1033 406 1033 380 1075 c 0,25,26
 348 1128 348 1128 284 1128 c 2,27,-1
 186 1128 l 1,28,-1
 186 1288 l 1,29,-1
 370 1288 l 2,30,31
 456 1288 456 1288 516 1179 c 0,32,33
 570 1083 570 1083 570 976 c 0,34,35
 570 951 570 951 566 930 c 0,36,37
 531 741 531 741 436 554 c 1,38,39
 571 436 571 436 764 436 c 0,40,41
 809 436 809 436 895 482 c 0,42,43
 975 524 975 524 1000 554 c 1,44,-1
 1000 1288 l 1,45,-1
 1376 1288 l 1,46,-1
 1376 1128 l 1,47,-1
 1164 1128 l 1,0,-1
EndSplineSet
Validated: 1
EndChar

StartChar: q
Encoding: 113 113 84
GlifName: q
Width: 0
Flags: W
LayerCount: 2
Fore
SplineSet
1501 3625 m 2,1,-1
 1501 3319 l 1,2,-1
 1492 3310 l 1,3,4
 1016 3310 1016 3310 727 3175 c 1,5,6
 499 3063 499 3063 394 2761 c 1,7,8
 365 2500 365 2500 349 2500 c 2,9,-1
 205 2500 l 1,10,-1
 196 2509 l 1,11,12
 196 2811 196 2811 394 3094 c 1,13,14
 851 3643 851 3643 1474 3643 c 0,15,0
 1501 3643 1501 3643 1501 3625 c 2,1,-1
EndSplineSet
Validated: 1
EndChar

StartChar: r
Encoding: 114 114 85
GlifName: r
Width: 1582
Flags: W
LayerCount: 2
Fore
SplineSet
366 1846 m 0,0,1
 553 1844 553 1844 719.5 1742 c 128,-1,2
 886 1640 886 1640 998 1466 c 0,3,4
 1032 1413 1032 1413 1032 1391 c 0,5,6
 1032 1373 1032 1373 1019 1373 c 0,7,8
 1008 1373 1008 1373 880 1479 c 0,9,10
 734 1599 734 1599 616 1648 c 0,11,12
 533.5 1682.57142857 533.5 1682.57142857 374.448979592 1682.57142857 c 0,13,14
 331.071428571 1682.57142857 331.071428571 1682.57142857 282 1680 c 1,15,16
 229 1709 229 1709 229 1753 c 0,17,18
 229 1791 229 1791 268 1819 c 0,19,20
 305.655172414 1846.03448276 305.655172414 1846.03448276 361.954815696 1846.03448276 c 0,21,22
 363.965517241 1846.03448276 363.965517241 1846.03448276 366 1846 c 0,0,1
1104 1138 m 1,23,-1
 1104 418 l 2,24,25
 1104 291 1104 291 1044 203 c 0,26,27
 973 97 973 97 841 97 c 0,28,29
 820 97 820 97 798 100 c 0,30,31
 617 122 617 122 439 331 c 0,32,33
 264 536 264 536 264 712 c 0,34,35
 264 910 264 910 518 910 c 2,36,-1
 940 910 l 1,37,-1
 940 1138 l 1,38,-1
 210 1138 l 1,39,-1
 210 1298 l 1,40,-1
 1336 1298 l 1,41,-1
 1336 1138 l 1,42,-1
 1104 1138 l 1,23,-1
940 750 m 1,43,-1
 560 750 l 2,44,45
 489 750 489 750 464 734 c 128,-1,46
 439 718 439 718 444 676 c 0,47,48
 456 575 456 575 586 420 c 0,49,50
 725 255 725 255 829 255 c 0,51,52
 878 255 878 255 910 297 c 0,53,54
 940 335 940 335 940 386 c 2,55,-1
 940 750 l 1,43,-1
EndSplineSet
Validated: 1
EndChar

StartChar: s
Encoding: 115 115 86
GlifName: s
Width: 1582
Flags: W
LayerCount: 2
Fore
SplineSet
1188 1128 m 5,0,-1
 1188 90 l 5,1,-1
 1026 90 l 5,2,-1
 1026 588 l 5,3,-1
 546 588 l 5,4,5
 537 495 537 495 498 294 c 5,6,7
 458 148 458 148 364 148 c 4,8,9
 248 148 248 148 248 272 c 4,10,11
 248 310 248 310 260 350 c 4,12,13
 298 445 298 445 336 539 c 4,14,15
 386 667 386 667 393 760 c 4,16,17
 395 788 395 788 395 815 c 4,18,19
 395 882 395 882 381 971 c 4,20,21
 367 1049 367 1049 354 1128 c 5,22,-1
 172 1128 l 5,23,-1
 172 1288 l 5,24,-1
 1370 1288 l 5,25,-1
 1370 1128 l 5,26,-1
 1188 1128 l 5,0,-1
1026 1128 m 5,27,-1
 516 1128 l 5,28,29
 558 963 558 963 558 829 c 4,30,31
 558 788 558 788 554 748 c 5,32,-1
 1026 748 l 5,33,-1
 1026 1128 l 5,27,-1
EndSplineSet
Validated: 1
EndChar

StartChar: u
Encoding: 117 117 88
GlifName: u
Width: 2
Flags: W
LayerCount: 2
Fore
SplineSet
-643 2303 m 1,0,-1
 -707 2225 l 1,1,-1
 -759 2167 l 1,2,3
 -781 2155 -781 2155 -793 2155 c 0,4,5
 -809 2155 -809 2155 -877 2235 c 2,6,-1
 -940 2307 l 1,7,-1
 -940 2344 l 1,8,-1
 -865 2446 l 2,9,10
 -837 2484 -837 2484 -809 2500 c 1,11,12
 -781 2500 -781 2500 -643 2344 c 1,13,-1
 -641 2323 l 1,14,-1
 -643 2303 l 1,0,-1
EndSplineSet
Validated: 1
EndChar

StartChar: w
Encoding: 119 119 90
GlifName: w
Width: 0
Flags: W
LayerCount: 2
Fore
SplineSet
-43 3643 m 1,0,-1
 1550 3643 l 1,1,-1
 1568 3625 l 1,2,-1
 1568 3328 l 1,3,-1
 1550 3310 l 1,4,-1
 -43 3310 l 1,5,-1
 -61 3328 l 1,6,-1
 -61 3625 l 1,7,-1
 -43 3643 l 1,0,-1
EndSplineSet
Validated: 1
EndChar

StartChar: x
Encoding: 120 120 91
GlifName: x
Width: 1582
Flags: W
LayerCount: 2
Fore
SplineSet
341 892 m 1,0,-1
 425 972 l 1,1,-1
 792 605 l 1,2,-1
 1158 972 l 1,3,-1
 1242 892 l 1,4,-1
 871 523 l 1,5,-1
 1242 155 l 1,6,-1
 1158 75 l 1,7,-1
 792 441 l 1,8,-1
 425 75 l 1,9,-1
 341 155 l 1,10,-1
 710 523 l 1,11,-1
 341 892 l 1,0,-1
EndSplineSet
Validated: 1
EndChar

StartChar: bar
Encoding: 124 124 95
GlifName: bar
Width: 1582
Flags: W
LayerCount: 2
Fore
SplineSet
879 -3 m 1,0,-1
 703 184 l 1,1,-1
 703 1397 l 1,2,-1
 879 1231 l 1,3,-1
 879 -3 l 1,0,-1
EndSplineSet
Validated: 1
EndChar

StartChar: asciitilde
Encoding: 126 126 97
GlifName: asciitilde
Width: 8
Flags: W
LayerCount: 2
Fore
SplineSet
12022 -2000 m 1,0,-1
 12258 -2000 l 1,1,2
 11773 -2273 11773 -2273 11123 -2456 c 0,3,4
 10198 -2717 10198 -2717 8941.5 -2858.5 c 128,-1,5
 7685 -3000 7685 -3000 6333 -3000 c 0,6,7
 4356 -3000 4356 -3000 2727 -2722.5 c 128,-1,8
 1098 -2445 1098 -2445 396 -2000 c 1,9,-1
 664 -2000 l 1,10,11
 1098 -2222 1098 -2222 1850.5 -2365.5 c 128,-1,12
 2603 -2509 2603 -2509 3757 -2579.5 c 128,-1,13
 4911 -2650 4911 -2650 6168 -2650 c 0,14,15
 7532 -2650 7532 -2650 8648 -2590 c 0,16,17
 9528 -2543 9528 -2543 10060.5 -2476 c 128,-1,18
 10593 -2409 10593 -2409 11084.5 -2295.5 c 128,-1,19
 11576 -2182 11576 -2182 12022 -2000 c 1,0,-1
EndSplineSet
Validated: 1
EndChar

StartChar: quoteright
Encoding: 8217 8217 182
GlifName: quoteright
Width: 1582
Flags: W
LayerCount: 2
Fore
SplineSet
1104 1138 m 1,0,-1
 1104 418 l 2,1,2
 1104 291 1104 291 1044 203 c 0,3,4
 973 97 973 97 841 97 c 0,5,6
 820 97 820 97 798 100 c 0,7,8
 617 122 617 122 439 331 c 0,9,10
 264 536 264 536 264 712 c 0,11,12
 264 910 264 910 518 910 c 2,13,-1
 940 910 l 1,14,-1
 940 1138 l 1,15,-1
 210 1138 l 1,16,-1
 210 1298 l 1,17,-1
 1336 1298 l 1,18,-1
 1336 1138 l 1,19,-1
 1104 1138 l 1,0,-1
940 750 m 1,20,-1
 560 750 l 2,21,22
 489 750 489 750 464 734 c 128,-1,23
 439 718 439 718 444 676 c 0,24,25
 456 575 456 575 586 420 c 0,26,27
 725 255 725 255 829 255 c 0,28,29
 878 255 878 255 910 297 c 0,30,31
 940 335 940 335 940 386 c 2,32,-1
 940 750 l 1,20,-1
EndSplineSet
Validated: 1
EndChar

